<svg xmlns="http://www.w3.org/2000/svg" viewBox="0 0 32 32" width="32" height="32" fill="none">
  <defs>
    <linearGradient id="favBg" x1="0%" y1="0%" x2="100%" y2="100%">
      <stop offset="0%" stop-color="#0F172A" />
      <stop offset="100%" stop-color="#020617" />
    </linearGradient>
    <linearGradient id="favSphere" x1="0%" y1="0%" x2="100%" y2="100%">
      <stop offset="0%" stop-color="#6366F1" />
      <stop offset="50%" stop-color="#8B5CF6" />
      <stop offset="100%" stop-color="#10B981" />
    </linearGradient>
    <linearGradient id="favSpark" x1="0%" y1="0%" x2="100%" y2="100%">
      <stop offset="0%" stop-color="#34D399" />
      <stop offset="100%" stop-color="#06B6D4" />
    </linearGradient>
  </defs>

  <!-- Rounded Tile -->
  <rect width="32" height="32" rx="8" fill="url(#favBg)" />
  <rect width="30" height="30" x="1" y="1" rx="7" stroke="url(#favSphere)" stroke-width="1.2" stroke-opacity="0.6" />

  <!-- Orbit Ring -->
  <circle cx="16" cy="16" r="10.5" stroke="url(#favSphere)" stroke-width="1.8" />

  <!-- Open Folio -->
  <path d="M 16 20 C 13.5 18 10 18 8 19 L 8 13 C 10 12 13.5 12 16 14 Z" fill="#FFFFFF" opacity="0.95" />
  <path d="M 16 20 C 18.5 18 22 18 24 19 L 24 13 C 22 12 18.5 12 16 14 Z" fill="#E0E7FF" opacity="0.95" />
  <line x1="16" y1="13.5" x2="16" y2="20.5" stroke="#6366F1" stroke-width="1.2" stroke-linecap="round" />

  <!-- AI Sparkle Core -->
  <path d="M 16 7 Q 16 10 13 10 Q 16 10 16 13 Q 16 10 19 10 Q 16 10 16 7 Z" fill="url(#favSpark)" />
</svg>
